# Blender v2.66 (sub 1) OBJ File: ''
# www.blender.org
mtllib house1.mtl
o JoinedMesh
v 5.000000 -0.000000 3.000000
v -5.000000 -0.000000 3.000000
v 0.000000 0.000000 0.000000
v 5.000000 0.000000 -3.000000
v -5.000000 0.000000 -3.000000
v 5.000000 1.500000 0.000000
v 5.000000 3.000000 -3.000000
v 5.000000 3.000000 3.000000
v 0.000000 1.500000 3.000000
v -5.000000 3.000000 3.000000
v -5.000000 1.500000 0.000000
v -5.000000 3.000000 -3.000000
v 0.000000 3.000000 0.000000
v 0.000000 1.500000 -3.000000
v 5.430260 3.000000 -3.236249
v 3.103000 5.000000 0.129451
v 5.430260 3.000000 0.129450
v 3.103000 5.000000 0.129451
v 5.430260 3.000000 3.236250
v -3.103000 5.000000 0.129451
v -3.103000 5.000000 0.129451
v 0.000000 5.000000 0.129451
v -5.430260 3.000000 3.236250
v -5.430260 3.000000 0.129450
v -5.430260 3.000000 -3.236249
vt 0.305028 0.467513
vt 0.303597 0.000859
vt 0.444309 0.233757
vt 0.585021 0.466654
vt 0.583589 0.000000
vt 0.860004 0.467491
vt 0.859145 0.187498
vt 0.929572 0.327280
vt 0.999141 0.187069
vt 1.000000 0.467061
vt 0.163601 0.974821
vt 0.162169 0.508167
vt 0.232883 0.741279
vt 0.302165 0.507738
vt 0.303597 0.974392
vt 0.139996 0.507738
vt 0.140855 0.787730
vt 0.070428 0.647949
vt 0.000859 0.788160
vt 0.000000 0.508167
vt 0.586453 0.000000
vt 0.722083 0.233745
vt 0.859145 0.000837
vt 0.857713 0.467491
vt 0.583589 0.467513
vt 0.585021 0.934168
vt 0.514307 0.701055
vt 0.445025 0.934597
vt 0.443593 0.467943
vt 0.760383 0.467960
vt 0.585910 0.576029
vt 0.607417 0.467491
vt 0.000000 0.000000
vt 0.881631 0.576462
vt 0.761938 0.467491
vt 0.903138 0.467924
vt 0.760383 0.974302
vt 0.880742 0.866068
vt 0.901583 0.974735
vt 0.585021 0.865634
vt 0.758828 0.974771
vt 0.605862 0.974302
vt 0.585465 0.720832
vt 0.302042 0.000000
vt 0.303597 0.506811
vt 0.146535 0.507293
vt 0.881187 0.721265
vt 0.144980 0.000482
vt 0.001555 0.507738
vt 0.000000 0.000927
vn 0.000000 -1.000000 -0.000000
vn 1.000000 0.000000 0.000000
vn 0.000000 -0.000000 1.000000
vn -1.000000 -0.000000 -0.000000
vn 0.000000 1.000000 0.000000
vn 0.000000 0.000000 -1.000000
vn 0.651769 0.758418 0.000000
vn 0.000000 0.000000 0.000000
vn -0.651769 0.758418 0.000000
vn 0.000000 0.859674 -0.510844
vn -0.000000 0.840837 0.541288
usemtl None
s off
f 1/1/1 2/2/1 3/3/1
f 4/4/1 1/1/1 3/3/1
f 5/5/1 4/4/1 3/3/1
f 2/2/1 5/5/1 3/3/1
f 1/6/2 4/7/2 6/8/2
f 4/7/2 7/9/2 6/8/2
f 7/9/2 8/10/2 6/8/2
f 8/10/2 1/6/2 6/8/2
f 2/11/3 1/12/3 9/13/3
f 1/12/3 8/14/3 9/13/3
f 8/14/3 10/15/3 9/13/3
f 10/15/3 2/11/3 9/13/3
f 5/16/4 2/17/4 11/18/4
f 2/17/4 10/19/4 11/18/4
f 10/19/4 12/20/4 11/18/4
f 12/20/4 5/16/4 11/18/4
f 10/4/5 8/21/5 13/22/5
f 8/21/5 7/23/5 13/22/5
f 7/23/5 12/24/5 13/22/5
f 12/24/5 10/4/5 13/22/5
f 4/25/6 5/26/6 14/27/6
f 5/26/6 12/28/6 14/27/6
f 12/28/6 7/29/6 14/27/6
f 7/29/6 4/25/6 14/27/6
f 15/30/7 16/31/7 17/32/7
f 16/33/8 18/33/8 17/33/8
f 18/34/7 19/35/7 17/36/7
f 20/33/8 21/33/8 22/33/8
f 23/37/9 21/38/9 24/39/9
f 21/33/8 20/33/8 24/33/8
f 20/40/9 25/41/9 24/42/9
f 18/33/8 16/33/8 22/33/8
f 15/30/10 22/43/10 16/31/10
f 25/44/1 15/45/1 17/46/1
f 23/37/11 22/47/11 21/38/11
f 24/48/1 19/49/1 23/50/1
f 19/35/11 18/34/11 22/47/11
f 19/35/11 22/47/11 23/37/11
f 24/48/1 25/44/1 17/46/1
f 24/48/1 17/46/1 19/49/1
f 20/40/10 22/43/10 15/30/10
f 20/40/10 15/30/10 25/41/10